<svg xmlns="http://www.w3.org/2000/svg" viewBox="0 0 634.86 730.53"><defs><style>.cls-1{fill:#ff0400;}.cls-2{fill:#1b381b;}.cls-3{fill:#fff;}.cls-10,.cls-17,.cls-19,.cls-22,.cls-23,.cls-4{fill:none;}.cls-10,.cls-14,.cls-15,.cls-17,.cls-19,.cls-20,.cls-22,.cls-23,.cls-4,.cls-9{stroke:#000;}.cls-10,.cls-14,.cls-15,.cls-17,.cls-20,.cls-22,.cls-23,.cls-4,.cls-9{stroke-miterlimit:10;}.cls-4{stroke-width:15px;}.cls-5{fill:#ff7189;}.cls-16,.cls-6{opacity:0.2;}.cls-7{opacity:0.6;}.cls-8{fill:#c7c7c7;}.cls-20,.cls-9{fill:#386136;}.cls-9{stroke-width:20px;}.cls-10{stroke-width:8.94px;}.cls-11{fill:#f8ed85;}.cls-12{fill:#f4df4a;}.cls-13{fill:#f7d086;}.cls-13,.cls-21,.cls-24{fill-rule:evenodd;}.cls-15,.cls-18{fill:#58ba55;}.cls-15,.cls-17{stroke-width:4px;}.cls-19{stroke-linecap:round;stroke-linejoin:round;}.cls-19,.cls-20{stroke-width:8px;}.cls-21{fill:#ad8b1f;}.cls-22{stroke-width:5px;}.cls-23{stroke-width:9px;}.cls-24{fill:#e7bd26;}</style></defs><g id="Layer_8" data-name="Layer 8"><path class="cls-1" d="M439.7,816.47c7.13-417.26,627.79-417.19,634.86,0C1067.43,1233.73,446.77,1233.66,439.7,816.47Z" transform="translate(-439.7 -398.86)"></path></g><g id="Layer_6" data-name="Layer 6"><path class="cls-2" d="M550.33,752.72c-42.58,9.24-44.27,71.34-2.07,82.71,124.07,36.93,276.65,65.52,398.2,10.85,61.63-44.2,64.7-65.63-.31-98.31C847.94,698.59,657,729.56,550.33,752.72Z" transform="translate(-439.7 -398.86)"></path><path d="M994,895.29c-11.94-335.45-461.82-335.5-473.73,0-2.2,77.82,110.27,180.78,236.87,183.15C883.73,1076.06,996.2,973.14,994,895.29Z" transform="translate(-439.7 -398.86)"></path><path class="cls-3" d="M957.47,873.48c-19.91-3.09-14,4.49-78.14,23.26-59.55,17.41-68.19-28-123.53-28-68.51,0-71.19,45.6-131.53,28C560.12,878,566,870.39,546.13,873.48c-28.74,4.46-24.41,41.5-21,56.09C554,1054.74,717.94,1070.1,749,1071.89v.23c-.13-.06,5.73-.06,5,0v-.23c31.65-1.79,195.56-17.15,224.5-142.32C981.87,915,986.21,877.94,957.47,873.48Z" transform="translate(-439.7 -398.86)"></path><path class="cls-4" d="M991.09,895.29c-12-335.5-461.83-335.46-473.73,0-2.25,77.45,109.18,179.74,235.28,183.17C877.94,1077.57,994.17,973.19,991.09,895.29Z" transform="translate(-439.7 -398.86)"></path><g id="Cute_kishu_dog" data-name="Cute kishu dog"><g id="Head"><path d="M754.24,947.74c-11.5,7.46-27,18.21-43,9.89l0,0c12.21,8.52,14.7,54.22,41.28,54.39,29.7.59,30.1-41.33,46.78-52.35C790.87,967.62,762,960.16,754.24,947.74Z" transform="translate(-439.7 -398.86)"></path><path d="M795.65,956.54c-11.91,5.81-36-4.31-40-15.38-13.36,8.85-30.19,21.26-46,10.34l-4.57,6.75c17.36,11.25,12.17,54.64,47.12,58.51,31.17,2.43,34.41-41.8,50.31-53.63L796.27,956Zm-16.38,24.71c-5.88,13.32-12.21,27.21-26.51,26.06-20-1.13-22.5-27.35-30.21-42,11.64.27,22.41-6,30.66-11.3,8.36,8.46,22,13.08,33.43,13.62A114.06,114.06,0,0,0,779.27,981.25Z" transform="translate(-439.7 -398.86)"></path><path class="cls-5" d="M753.91,979.52c-17.43-9.64-27.18,9.7-27.2,9.73,10.64,29.65,42.45,30.41,53.47,1.4C776.14,982,767.27,974.26,753.91,979.52Z" transform="translate(-439.7 -398.86)"></path><g class="cls-6"><path d="M732.57,998.22s8.92-18.1,20.93-7.78c15.3-8.31,17.94,7.52,17.83,10.56s8.85-10.35,8.85-10.35-7.57-16.5-26.27-11.13c-19.41-4.12-27.61,7-27.61,7Z" transform="translate(-439.7 -398.86)"></path></g><path d="M754.2,975.08c-14.7-8.14-29.25,6.18-32,14,14,38.68,51.85,32.64,62.47,1.58C780.23,980.05,770,970.05,754.2,975.08ZM752.72,1008c-9-.54-16.07-6.57-21.43-18.43,3.77-7.08,14.15-11.89,22.33-5.52,10.79-5.61,19.61,1.21,22,6.68C770.84,1000.31,764.57,1008.67,752.72,1008Z" transform="translate(-439.7 -398.86)"></path><polygon points="313.08 597.92 317.47 580.85 310.95 580.47 313.08 597.92"></polygon><g class="cls-6"><path d="M784.05,950.08c-16.25-2.6-20.38-14.42-20.89-23,0,0-12.26-1.61-17.18-1.15-1.42,29.89-49.15,30.7-40.37.55l-8.09,11.63c5.47,25.89,28,25.36,56.72,9.61,19,23.33,70.8,12.84,49.75-17.55C806.87,941.92,800.29,952.68,784.05,950.08Z" transform="translate(-439.7 -398.86)"></path></g><path d="M755.31,888.22c-49.87,3.12-26.64,37-2.32,42.15C776.59,927.79,804.56,890.38,755.31,888.22Z" transform="translate(-439.7 -398.86)"></path><g class="cls-7"><path class="cls-3" d="M755.53,894.93c-33.81.82-16.29,6.67-1.68,7.86C764.73,903.08,784.43,895.62,755.53,894.93Z" transform="translate(-439.7 -398.86)"></path></g><path d="M804,930.19c7.63,12-3.62,25.39-12.15,28-4,1.9-18.43.28-35.11-14.51l-3.37-1.44c-16,13.29-34.43,15.88-37.7,13.07-8.3-3.27-18.56-17.4-10-28.85-22.65,4.81-9.76,30.72,6,37.49,7.94,3.75,23,2.86,42.22-10.27,18,13.52,29.42,16.84,41.46,13.42C811.47,960.67,825.54,939.47,804,930.19Z" transform="translate(-439.7 -398.86)"></path><path d="M749.21,948l9.55-.11c0-.14-.15-13.7.25-20.17l-9.53-.59C749.06,933.94,749.21,947.43,749.21,948Z" transform="translate(-439.7 -398.86)"></path></g></g><path class="cls-3" d="M806.71,845.63c29,53.12,153.48,27.76,111.1-77.77,0,0-7.38-5.37-65.5,41.33C852.31,809.19,836.37,827.82,806.71,845.63Z" transform="translate(-439.7 -398.86)"></path><path class="cls-8" d="M926.07,761.15c-61.72,2.62-86,74.39-141.81,88.37,68.13-3.37,88.31-82.88,157.89-88.43A104,104,0,0,0,926.07,761.15Z" transform="translate(-439.7 -398.86)"></path><path class="cls-3" d="M887.5,708.1c-28.64,9.9-55.11,30.73-65.78,59.76,23.14-21.9,45.53-45.8,72.87-62.07C892.22,706.55,889.85,707.3,887.5,708.1Z" transform="translate(-439.7 -398.86)"></path><path class="cls-3" d="M901,695.1c-35,11.87-79.93,33.55-94.84,69.55,33-32.57,76-54.25,116.72-76.08C915.51,690.4,908.25,692.73,901,695.1Z" transform="translate(-439.7 -398.86)"></path><path class="cls-3" d="M707.54,845.63c-28.41,52.52-153.21,28.87-110.6-77.77,0,0,6.88-5.37,65,41.33C661.94,809.19,677.88,827.82,707.54,845.63Z" transform="translate(-439.7 -398.86)"></path><path class="cls-8" d="M588.19,761.15c61.72,2.62,86,74.39,141.81,88.37-68.14-3.37-88.32-82.88-157.9-88.43A104.12,104.12,0,0,1,588.19,761.15Z" transform="translate(-439.7 -398.86)"></path><path class="cls-3" d="M626.76,708.1c28.63,9.9,55.1,30.73,65.78,59.76-23.15-21.9-45.53-45.8-72.87-62.07C622,706.55,624.41,707.3,626.76,708.1Z" transform="translate(-439.7 -398.86)"></path><path class="cls-3" d="M613.24,695.1c35,11.87,79.93,33.55,94.83,69.55-33-32.57-76-54.25-116.71-76.08C598.75,690.4,606,692.73,613.24,695.1Z" transform="translate(-439.7 -398.86)"></path><path class="cls-9" d="M997.85,772.05l-50.54-96.34c.64-.17-7.54-3.3-13.72-8.35,11.55-58.79-35.23-153.74-52.79-164-63.29-67-123.38-89.85-141.89-93.22l-.34-.47-48.37,8,.29.3-.29.05s38.6,32,40.8,126.43h0v.4c18.56-.62,24.14-1.68,38.75-.18a8.34,8.34,0,0,0,1.8,2.44c4.11.32,4-.6,3.51-1.16,16.11,3.55,29.62,12.7,49.37,28-86.32-41.46-169.89-10-247.51,95l3.44-1.75c-8.74,5.13-15.62,8.51-15.24,8.47L513,768.43c-16.8,17.48-17.15,39.16,7,65l5.18-21.16C456.2,707.69,1053.49,708.42,982,809l-1.47-.23L987.94,828C1007.23,806.23,1008.87,787.58,997.85,772.05Z" transform="translate(-439.7 -398.86)"></path><path class="cls-10" d="M921.4,644.35c.1.23,12.53,10.63,17.08,12.21,9.67-167.48-132-216.63-185.39-244l-13.48-2.51L690,417.65s39.62,30.66,41.88,121c11.38-.6,29.46-.84,40.72.62C772.57,539.3,907,609.48,921.4,644.35Z" transform="translate(-439.7 -398.86)"></path><path class="cls-11" d="M885.58,499.39c-52.46-56.35-132.49-86.8-132.49-86.8l-13.48-2.51L690,417.65s39.62,30.66,41.88,121c89.12-14.87,188.8,86.76,206.63,117.87,7.64-90.62-52.9-157.17-52.9-157.17" transform="translate(-439.7 -398.86)"></path><path class="cls-12" d="M936,597.07c-7.71-40.14-38.71-74.87-66.57-97.89,1.33,8.71.12,21.81-3,29.66.65-9.86-3-38.85-12.74-44.16-.71,10.91-5.62,25.69-9,32.74-.11-17-2-34.6-12.13-48.19A223.25,223.25,0,0,1,816,506.46c-.11-14.47-7.56-43.16-29.35-54.77a182.41,182.41,0,0,1-10,87.68c12.54,4.49,20,.8,24-38.95,3.7,16.94.17,14.27-.92,40.88,2.33,1.81,13.52,6.09,18.23,8.92,7.62-13.24,8.5-33.92,15.49-58.16,1.82,17.78.53,39.52-1.8,60.45,7.3-12.53,15.54-25.14,25.73-45.46a350.18,350.18,0,0,1-1.22,55.48c6.2-10.18,19.18-8.64,19.18-43.08,3.87,1.4.36,15.93,4.83,21.59-1.54,12.65,5,15.38,4.16,30.25,4.12-3,10.53-11.28,20.23-24.07,4.5,2.41-.19,13.63,2.36,25.34-2,12.9,1.89,21.12-5.76,32.32q6.54-2.48,18.4-10.23c4.88,15.88,6.21,25.47,7.72,47.61,3.06,2,8.91,13.3,12.28,14.46,7.35-21.5.08-40.84-3.54-59.65" transform="translate(-439.7 -398.86)"></path><path d="M920,580.35c-3.51,13.18-12.33,19.08-16.69,20.73,7.65-11.2,16.8-39.42-2.29-59.88-3.69,19.21-12.11,25.4-16.22,28.42.82-14.86-4.19-45.4-9.37-50.71-1.21,21.89-8,33.61-18.5,41.5,2.48-27,4.45-45.5-.54-63.25-6.64,25.37-15.82,38.4-23.13,50.93,2.34-20.93,5.57-42.43-1.58-58.37-5.55,26.4-11.37,44.23-18.53,57.71-4.71-2.83-10.19-4.78-12.93-6.13,4-25.39,8.23-37.6-3.25-67.15,2.4,40.81-11.49,66.74-11.63,67.26C859.08,576,927.28,648.9,927.89,649.91c.2.09.9,1.62,1.09,1.74s-1.42,1.7.36-6.61C936.46,611.74,920,580.35,920,580.35Z" transform="translate(-439.7 -398.86)"></path><path class="cls-13" d="M690,417.32l49.64-7.62s34.75,42,37,130c0,0,2.79,1.95-3.18,1.51-.1,0-2.33-2.12-2.42-4.2-2.23-48-18.12-65.25-17.62-63.48,11.64,41.28,10.16,64.21,8.28,64.33-7,.44-14.37.48-29.86,1.19,0,0,1.14-81.91-41.87-121.76" transform="translate(-439.7 -398.86)"></path><path class="cls-10" d="M938.48,656.56c2.23-174.69-128.32-213.65-185.39-244l-13.48-2.51L690,417.65s39.62,30.66,41.88,121C823.47,521,926.52,650.63,938.48,656.56Z" transform="translate(-439.7 -398.86)"></path><path class="cls-14" d="M942.15,568.07" transform="translate(-439.7 -398.86)"></path><path d="M739.61,409.7s30.1,41,36.65,112.11c0,0,4.92-42.84-22.37-112.11" transform="translate(-439.7 -398.86)"></path><path class="cls-15" d="M573.8,677.19c116.7-168.93,250.94-158.85,368.35,3.71" transform="translate(-439.7 -398.86)"></path><path class="cls-16" d="M664.36,583.81c-16.86,10.81-26.06,32.39-22.19,52L576.69,669C598.57,636.26,627.16,608.07,664.36,583.81Z" transform="translate(-439.7 -398.86)"></path><path class="cls-17" d="M573.8,677.19c116.7-168.93,250.94-158.85,368.35,3.71" transform="translate(-439.7 -398.86)"></path><path class="cls-18" d="M1001.59,779.6,947.08,675.71s-124.9-73.16-190.59-73.16h0c-66.4,2.25-191.59,73.15-191.59,73.15L505,778.65C524.53,748.47,840.26,684,1001.59,779.6Z" transform="translate(-439.7 -398.86)"></path><path class="cls-16" d="M690.16,618.39c-29.11,31-53.8,60-43.86,103.24-55.09,5.64-106.45,23.3-133.3,45.21,10.61-28.14,50.92-92.74,50.92-92.74S688.8,615,690.16,618.39Z" transform="translate(-439.7 -398.86)"></path><path d="M644.61,680.31" transform="translate(-439.7 -398.86)"></path><path class="cls-19" d="M1001.59,779.6,947.08,675.71s-124.9-73.16-190.59-73.16h0c-66.4,2.25-191.59,73.15-191.59,73.15L505,778.65C524.53,748.47,840.26,684,1001.59,779.6Z" transform="translate(-439.7 -398.86)"></path><path class="cls-20" d="M981.76,809C1053.28,708.42,456,707.69,525,812.29l-5.19,21.16C373.61,677,1124.52,673.48,987.71,828l-7.43-19.26" transform="translate(-439.7 -398.86)"></path><path class="cls-17" d="M772.87,558.41c-1.7,9.71-2.73,16.52-3,20.43,18-3.72,56.58-6.17,76.35,1.33C841.25,574.51,812.71,567.54,772.87,558.41Z" transform="translate(-439.7 -398.86)"></path><path class="cls-17" d="M770.72,560.56q-8.49-.82-29.84-1.38c4.23,10.32,2,12.13.78,19.41,8.91,2.83,22.79,2.5,28.17.25C768,567.26,769.88,567.72,770.72,560.56Z" transform="translate(-439.7 -398.86)"></path><path class="cls-17" d="M764.56,557.14c32.78,2.48,64,11.92,94.23,26.58-18.37-14.92-44.27-26.42-74-35.9-16.92-2.84-37.7-2.93-61.18-1.55a6.43,6.43,0,0,0-.54,1H723c-1.92,3-1.46,6.53,1.38,10.72C739.56,557.21,752.6,556.8,764.56,557.14Z" transform="translate(-439.7 -398.86)"></path><path class="cls-21" d="M769.43,557.89c-1.42,9.33-2.27,15.86-2.53,19.63,15-3.58,47-5.94,63.42,1.27-4.1-5.43-27.8-12.13-60.89-20.9" transform="translate(-439.7 -398.86)"></path><path class="cls-22" d="M769.43,557.89c-4.35,9.1-5.77,20-.53,20.9,15-3.57,54.24-3.8,70.67,3.41C833.11,576.6,803.49,561.65,769.43,557.89Z" transform="translate(-439.7 -398.86)"></path><path class="cls-23" d="M742.85,558.63c3.52,9.91,1.63,11.65.65,18.64,7.4,2.72,18.93,2.4,23.4.25-1.49-11.13,0-10.69.74-17.56Q760.59,559.17,742.85,558.63Z" transform="translate(-439.7 -398.86)"></path><path class="cls-24" d="M742.85,558.63c3.52,9.91,1.63,11.65.65,18.64,7.4,2.72,18.93,2.4,23.4.25-1.49-11.13,0-10.69.74-17.56q-7-.8-24.79-1.33" transform="translate(-439.7 -398.86)"></path><path class="cls-24" d="M778.79,548.72c-14.06-2.73-31.32-2.81-50.83-1.48-1.59,2.85-1.21,6.27,1.15,10.3,43.13-2.77,65.32-.62,101.23,18.14-8.82-10.84-26.82-17.85-51.55-27" transform="translate(-439.7 -398.86)"></path><path class="cls-17" d="M779.29,547.72c-14.06-2.73-31.32-2.81-50.83-1.48-1.59,2.85-.82,6.77,1.54,10.8,39.4-4.3,75.87,5.59,110.79,25.16C825.53,567.87,804,556.83,779.29,547.72Z" transform="translate(-439.7 -398.86)"></path><path class="cls-21" d="M769.43,557.89c-1.42,9.33-2.27,15.86-2.53,19.63,15-3.58,47-5.94,63.42,1.27-4.1-5.43-27.8-12.13-60.89-20.9" transform="translate(-439.7 -398.86)"></path><path class="cls-22" d="M769.43,557.89c-4.35,9.1-5.77,20-.53,20.9,15-3.57,54.24-3.8,70.67,3.41C833.11,576.6,803.49,561.65,769.43,557.89Z" transform="translate(-439.7 -398.86)"></path><path class="cls-23" d="M742.85,558.63c3.52,9.91,1.63,11.65.65,18.64,7.4,2.72,18.93,2.4,23.4.25-1.49-11.13,0-10.69.74-17.56Q760.59,559.17,742.85,558.63Z" transform="translate(-439.7 -398.86)"></path><path class="cls-24" d="M742.85,558.63c3.52,9.91,1.63,11.65.65,18.64,7.4,2.72,18.93,2.4,23.4.25-1.49-11.13,0-10.69.74-17.56q-7-.8-24.79-1.33" transform="translate(-439.7 -398.86)"></path><path class="cls-24" d="M778.79,548.72c-14.06-2.73-31.32-2.81-50.83-1.48-1.59,2.85-1.21,6.27,1.15,10.3,43.13-2.77,65.32-.62,101.23,18.14-8.82-10.84-26.82-17.85-51.55-27" transform="translate(-439.7 -398.86)"></path><path class="cls-17" d="M779.29,547.72c-14.06-2.73-31.32-2.81-50.83-1.48-1.59,2.85-.82,6.77,1.54,10.8,39.4-4.3,75.87,5.59,110.79,25.16C825.53,567.87,804,556.83,779.29,547.72Z" transform="translate(-439.7 -398.86)"></path></g></svg>