<svg xmlns="http://www.w3.org/2000/svg" viewBox="0 0 226.43 103.09"><defs><style>.cls-1{fill:#1c1c1c;}.cls-2{fill:#fff;}.cls-3{fill:#ff0f00;}</style></defs><g id="Laag_2" data-name="Laag 2"><path class="cls-1" d="M0,0H226.43a0,0,0,0,1,0,0V93.83a9.25,9.25,0,0,1-9.25,9.25H0a0,0,0,0,1,0,0V0A0,0,0,0,1,0,0Z"></path></g><g id="Laag_1" data-name="Laag 1"><path class="cls-2" d="M65.54,83.09v1.64h0v83.7H57.16V84.73H54.63v83.7H46.27V84.7H43.73v83.73H35.37V76.52h0V76H47.55a7.11,7.11,0,0,1,3,.65A7,7,0,0,1,53.39,76h5a7.1,7.1,0,0,1,7.1,7.1Z" transform="translate(-29.36 -70.52)"></path><path class="cls-2" d="M90.14,83.41v84.82H81.79V126.64H79v41.59H70.69V83.41a7.1,7.1,0,0,1,7.1-7.1H83A7.1,7.1,0,0,1,90.14,83.41Zm-8.35,1.64H79v33.23h2.75Z" transform="translate(-29.36 -70.52)"></path><path class="cls-2" d="M114.92,83.34v36.75a7.08,7.08,0,0,1-.55,2.73,7.08,7.08,0,0,1,.55,2.73v42.61h-8.36v-41h-2.74v41H95.46V76.24h12.35A7.11,7.11,0,0,1,114.92,83.34ZM106.56,85h-2.74v33.47h2.74Z" transform="translate(-29.36 -70.52)"></path><path class="cls-2" d="M135,76.16h8.36L140.78,161h0a7.23,7.23,0,0,1-7.23,7.22h-4.77a7.22,7.22,0,0,1-7.22-7.22l-2.51-84.87h8.35l2.48,83.62h2.57L135,76.15Z" transform="translate(-29.36 -70.52)"></path><path class="cls-2" d="M147.64,168.16V76.24H156v91.92Z" transform="translate(-29.36 -70.52)"></path><path class="cls-2" d="M180.73,83.34v84.82h-8.36V85h-2.54v83.18h-8.36V76.24h12.15A7.1,7.1,0,0,1,180.73,83.34Z" transform="translate(-29.36 -70.52)"></path><path class="cls-3" d="M191.77,168.16V76.25h8.35v91.91Z" transform="translate(-29.36 -70.52)"></path><path class="cls-3" d="M224.85,83.35v84.81H216.5V85H214v83.17H205.6V76.25h12.15A7.1,7.1,0,0,1,224.85,83.35Z" transform="translate(-29.36 -70.52)"></path><path class="cls-3" d="M249.43,76.06v85.19a7.1,7.1,0,0,1-7.1,7.1h-5.25a7.1,7.1,0,0,1-7.1-7.1V76.06h8.35v83.55h2.75V76.06Z" transform="translate(-29.36 -70.52)"></path></g></svg>